<svg width="57" height="55" viewBox="0 0 57 55" fill="none" xmlns="http://www.w3.org/2000/svg">
<path d="M39.1875 20.625C39.1875 23.36 38.0615 25.9831 36.0572 27.917C34.0529 29.851 31.3345 30.9375 28.5 30.9375C25.6655 30.9375 22.9471 29.851 20.9428 27.917C18.9385 25.9831 17.8125 23.36 17.8125 20.625C17.8125 17.89 18.9385 15.2669 20.9428 13.333C22.9471 11.399 25.6655 10.3125 28.5 10.3125C31.3345 10.3125 34.0529 11.399 36.0572 13.333C38.0615 15.2669 39.1875 17.89 39.1875 20.625Z" fill="black"/>
<path fill-rule="evenodd" clip-rule="evenodd" d="M0 27.5C0 20.2065 3.00267 13.2118 8.34746 8.05456C13.6922 2.89731 20.9413 0 28.5 0C36.0587 0 43.3078 2.89731 48.6525 8.05456C53.9973 13.2118 57 20.2065 57 27.5C57 34.7935 53.9973 41.7882 48.6525 46.9454C43.3078 52.1027 36.0587 55 28.5 55C20.9413 55 13.6922 52.1027 8.34746 46.9454C3.00267 41.7882 0 34.7935 0 27.5ZM28.5 3.4375C23.8038 3.43774 19.2032 4.7175 15.2276 7.12947C11.2519 9.54144 8.06294 12.9876 6.02762 17.0713C3.9923 21.155 3.19338 25.7102 3.72281 30.2127C4.25224 34.7152 6.0885 38.982 9.02025 42.5219C11.5496 38.5894 17.1178 34.375 28.5 34.375C39.8822 34.375 45.4468 38.5859 47.9798 42.5219C50.9115 38.982 52.7478 34.7152 53.2772 30.2127C53.8066 25.7102 53.0077 21.155 50.9724 17.0713C48.9371 12.9876 45.7481 9.54144 41.7724 7.12947C37.7968 4.7175 33.1962 3.43774 28.5 3.4375Z" fill="black"/>
</svg>
